<svg viewBox="0 0 1000 1000" xmlns="http://www.w3.org/2000/svg">
<rect x="0" y="0" width="340.68883707497264" height="340.68883707497264" rx ="20" ry="20" fill="none" stroke="lime" transform=""/>
<rect x="25" y="25" width="290.68883707497264" height="290.68883707497264" rx ="0" ry="0" fill="none" stroke="blue" transform=""/>
<line x1="25" y1="47.36067977499789" x2="69.72135954999578" y2="25" stroke="blue"   transform="" />
<line x1="69.72135954999578" y1="25" x2="92.08203932499369" y2="69.72135954999578" stroke="blue"   transform="" />
<line x1="92.08203932499369" y1="69.72135954999578" x2="181.52475842498527" y2="25" stroke="blue"   transform="" />
<line x1="181.52475842498527" y1="25" x2="203.88543819998316" y2="69.72135954999578" stroke="blue"   transform="" />
<line x1="203.88543819998316" y1="69.72135954999578" x2="293.32815729997475" y2="25" stroke="blue"   transform="" />
<line x1="293.32815729997475" y1="25" x2="315.68883707497264" y2="69.72135954999578" stroke="blue"   transform="" />
<line x1="25" y1="47.36067977499789" x2="65.0" y2="136.80339887498948" stroke="blue"   transform="" />
<line x1="65.0" y1="136.80339887498948" x2="25" y2="159.16407864998737" stroke="blue"   transform="" />
<line x1="25" y1="159.16407864998737" x2="65.0" y2="248.60679774997897" stroke="blue"   transform="" />
<line x1="65.0" y1="248.60679774997897" x2="25" y2="270.96747752497686" stroke="blue"   transform="" />
<line x1="25" y1="270.96747752497686" x2="47.36067977499789" y2="315.68883707497264" stroke="blue"   transform="" />
<line x1="47.36067977499789" y1="315.68883707497264" x2="136.80339887498948" y2="270.96747752497686" stroke="blue"   transform="" />
<line x1="136.80339887498948" y1="270.96747752497686" x2="159.16407864998737" y2="315.68883707497264" stroke="blue"   transform="" />
<line x1="159.16407864998737" y1="315.68883707497264" x2="248.60679774997897" y2="270.96747752497686" stroke="blue"   transform="" />
<line x1="248.60679774997897" y1="270.96747752497686" x2="270.96747752497686" y2="315.68883707497264" stroke="blue"   transform="" />
<line x1="270.96747752497686" y1="315.68883707497264" x2="315.68883707497264" y2="293.32815729997475" stroke="blue"   transform="" />
<line x1="315.68883707497264" y1="293.32815729997475" x2="270.96747752497686" y2="203.88543819998316" stroke="blue"   transform="" />
<line x1="315.68883707497264" y1="293.32815729997475" x2="248.60679774997897" y2="159.16407864998737" stroke="blue"   transform="" />
<line x1="315.68883707497264" y1="293.32815729997475" x2="270.96747752497686" y2="203.88543819998316" stroke="blue"   transform="" />
<line x1="270.96747752497686" y1="92.08203932499369" x2="315.68883707497264" y2="69.72135954999578" stroke="blue"   transform="" />
</svg>
